#!OML:ASF F:\VICON\USERDATA\INSTALL\rory3\rory3.ASF
:FULLY-SPECIFIED
:DEGREES
9
root 0.5647761101379378 17.879501619701625 -24.168285215191503 -1.4026688245097414 2.906348495869801 1.8248869848253495
lfemur 7.077760239918553 0.3916356824607936 -26.6856881574626
ltibia 16.979608979166954
lfoot -15.963090254461356 -0.6291606639041882
ltoes -21.854683609162198
rfemur -29.253189049645368 1.3489025525507499 19.429812034644602
rtibia 22.933708103375004
rfoot -4.73012373917536 -15.607780281198355
rtoes -0.4069445029696279
lowerback 11.014900218778841 -1.1597908924861597 -4.516866561742235
upperback 0.34168521363173165 -2.0267495638262556 1.4158049396619936
thorax -5.6170807646334895 -0.859094742778691 4.355428674249853
lowerneck -16.67159800761051 -2.642148952751484 -2.023769037086881
upperneck 21.214402604443283 -3.201968780342081 0.2580024248260224
head 9.491422884778066 -1.6265792141285096 0.009986958995366058
lclavicle 2.991113700483599e-16 5.531455856505488e-17
lhumerus -21.475515195444533 1.0657147326970016 81.470297429462
lradius 28.640894180778105
lwrist 10.441191466366105
lhand -29.742899072182908 22.47059310007221
lfingers 7.125020000000001
lthumb -3.069209071388607 52.428293103551255
rclavicle 2.991113700483599e-16 5.531455856505488e-17
rhumerus -35.7553918772789 -26.21788970055978 -73.34230860213306
rradius 21.892613265431102
rwrist 8.84156687243196
rhand -16.508011612206303 24.272292802804348
rfingers 7.125020000000001
rthumb 9.71003838727642 -5.483867462940989
10
root 0.5395938942456919 17.8143055292029 -23.456185519057186 -1.4370285816160735 3.666705762418562 1.8983867755510593
lfemur 10.076288261479633 -0.37090292347408216 -26.626188252055496
ltibia 16.194109434230825
lfoot -15.680090561755058 -0.7295545046117029
ltoes -21.361084185187423
rfemur -26.98689067255038 4.973151272673812 17.799014689967045
rtibia 14.774312452741363
rfoot -10.232197223249276 -16.2147786254646
rtoes -9.164224993895708
lowerback 11.166198531141061 -1.4505689562060389 -4.884845630985101
upperback 0.1683664732062639 -2.4601077664204327 1.5898826636286452
thorax -5.816816768225317 -1.0498179611387386 4.825076893556305
lowerneck -16.394701436140934 -2.769675830415835 -2.2920042468037365
upperneck 21.507198998560288 -3.3477168303176974 0.3786172008680666
head 9.552301045958977 -1.7039462851479947 0.07858771818213872
lclavicle 2.991113927867486e-16 5.5314560222021023e-17
lhumerus -21.210915650912856 -0.3938237625978851 82.11719459525996
lradius 28.003095438574746
lwrist 8.875345818568285
lhand -32.83258334849558 15.785206088369618
lfingers 7.125020000000001
lthumb -6.052623349682992 45.678806187402806
rclavicle 2.991113927867486e-16 5.5314560222021023e-17
rhumerus -36.91509002736107 -26.442389315697973 -72.53391058255383
rradius 21.78151349871132
rwrist 9.141106094279639
rhand -18.111798932035217 21.812302961203898
rfingers 7.125020000000001
rthumb 8.16248106653142 -8.010076990664171
11
root 0.49330433558040293 17.74880945669268 -22.751985819551706 -1.233520020245014 3.850585101380359 1.4387980841275372
lfemur 11.08688759468276 -1.3919733786817268 -25.90648939623229
ltibia 18.51220809128545
lfoot -18.03638800318198 0.4940915538585635
ltoes -31.78047202587423
rfemur -26.790990812835005 2.973657495768717 19.64411168571427
rtibia 15.534612047463554
rfoot -9.265448368138399 -11.762390770421646
rtoes -8.376816028731614
lowerback 11.234297771536745 -1.7104972253535227 -5.007185321542112
upperback -0.4386316088825749 -2.8048563365338293 2.090816114018435
thorax -6.430344492485507 -1.172266817283384 5.505464313835066
lowerneck -14.787521336227964 -2.4696631758493925 -2.6961170299485895
upperneck 21.109603895073533 -2.8646432935614694 0.35692942094832203
head 9.115794230605976 -1.5208932152135608 0.22345247193229442
lclavicle 2.9911139812282106e-16 5.531453812921186e-17
lhumerus -21.990014309811663 0.11757735978975692 82.5304927845076
lradius 28.478494501044924
lwrist 9.109395168037956
lhand -31.436090455376302 16.98470375799855
lfingers 7.125020000000001
lthumb -4.70426045515428 46.91250379588526
rclavicle 2.9911139812282106e-16 5.531453812921186e-17
rhumerus -38.529887451481656 -26.9725884067727 -70.73861498068521
rradius 20.893115364113275
rwrist 10.040583757588555
rhand -18.26549771683239 21.845302824932684
rfingers 7.125020000000001
rthumb 8.014092282292031 -7.982717104083228
12
root 0.4335911948900369 17.75220925282298 -21.98668614611875 -1.6774768818552364 3.990394598771302 0.9961383445025671
lfemur 12.782086476184777 -2.5157883765726314 -25.146390604636863
ltibia 21.069106609996073
lfoot -15.401990863728141 -3.8946784825857073
ltoes -10.344797041075577
rfemur -26.821890790707414 1.8001911479893586 21.48640868602055
rtibia 21.111209074858216
rfoot -5.9896222475923775 -10.216394987496386
rtoes -7.18038760111278
lowerback 11.214697990160015 -1.6612575532386369 -4.874915656101718
upperback -0.311882723931306 -2.708566735906646 2.2495040392037966
thorax -6.294617208178313 -1.134897166371782 5.579384033564925
lowerneck -14.76412162596293 -2.6138096466038525 -2.464401168050327
upperneck 21.223902487449127 -3.0513407956571643 0.0451052852342011
head 9.14469335771058 -1.6241093076348025 0.05520350361606802
lclavicle 2.9911139470966856e-16 5.531454641396615e-17
lhumerus -22.009314276589674 -0.07149041575217074 82.99919073103644
lradius 27.85929572216076
lwrist 6.8047915735868125
lhand -32.80108350880116 13.336110846445301
lfingers 7.125020000000001
lthumb -6.0221635101972915 43.2305109334127
rclavicle 2.9911139470966856e-16 5.531454641396615e-17
rhumerus -39.657085653406796 -28.56808567159677 -69.41261822912402
rradius 20.365316472351843
rwrist 10.879881577234551
rhand -18.34449709223237 22.15240155678451
rfingers 7.125020000000001
rthumb 7.937822907172832 -7.678548364999714
13
root 0.3825147852746561 17.837604132095848 -21.18918648642605 -2.1884132699783305 4.067544321421423 0.090883222014976
lfemur 12.792286469454723 -4.018081689853676 -24.14549219586454
ltibia 26.18180364805452
lfoot -11.588395004700924 -5.972275186113045
ltoes -14.952791663595592
rfemur -26.2272912165025 2.1509400563411787 22.645606798572807
rtibia 24.739607140740432
rfoot -3.651725016287772 -9.871465928373226
rtoes -2.0164643876915758
lowerback 11.197698179782236 -1.6287877694536963 -3.849348250146538
upperback -0.1942566147737954 -2.523947501637367 2.3049833138227656
thorax -6.222918642755594 -1.080977670060478 5.021036150567466
lowerneck -15.380213997513689 -2.577690530935099 -2.2228454818767394
upperneck 21.87309449243806 -3.083830360965618 0.1894031209485627
head 9.483423126410012 -1.6021901374558296 0.047311334949910105
lclavicle 2.9911143259099637e-16 5.531456629754316e-17
lhumerus -22.743113013465482 0.4435808003372492 83.34908919805254
lradius 28.051695342731364
lwrist 5.993013829888941
lhand -32.81188345383926 12.653312172979161
lfingers 7.125020000000001
lthumb -6.032603455181885 42.54741225759655
rclavicle 2.9911143259099637e-16 5.531456629754316e-17
rhumerus -40.32948458081496 -31.225381116170247 -67.81362214635908
rradius 18.986519367462385
rwrist 12.851276455883564
rhand -18.98409203534409 21.223305393438583
rfingers 7.125020000000001
rthumb 7.320487965045034 -8.630054420578357
